<svg width="110" height="110" viewBox="0 0 110 110" fill="none" xmlns="http://www.w3.org/2000/svg">
<rect width="110" height="110" fill="#1F1E1E"/>
<path d="M63.0001 51L57.0001 45.74C56.4501 45.2481 55.738 44.9761 55.0001 44.9761C54.2622 44.9761 53.5501 45.2481 53.0001 45.74L47.0001 51C46.6825 51.2841 46.429 51.6326 46.2566 52.0223C46.0841 52.4119 45.9967 52.8339 46.0001 53.26V62C46.0001 62.7957 46.3162 63.5587 46.8788 64.1213C47.4414 64.6839 48.2044 65 49.0001 65H61.0001C61.7957 65 62.5588 64.6839 63.1214 64.1213C63.684 63.5587 64.0001 62.7957 64.0001 62V53.25C64.0021 52.8256 63.9139 52.4055 63.7416 52.0177C63.5692 51.6298 63.3165 51.283 63.0001 51ZM57.0001 63H53.0001V58C53.0001 57.7348 53.1055 57.4804 53.293 57.2929C53.4805 57.1054 53.7349 57 54.0001 57H56.0001C56.2653 57 56.5197 57.1054 56.7072 57.2929C56.8947 57.4804 57.0001 57.7348 57.0001 58V63ZM62.0001 62C62.0001 62.2652 61.8947 62.5196 61.7072 62.7071C61.5197 62.8946 61.2653 63 61.0001 63H59.0001V58C59.0001 57.2044 58.684 56.4413 58.1214 55.8787C57.5588 55.3161 56.7957 55 56.0001 55H54.0001C53.2044 55 52.4414 55.3161 51.8788 55.8787C51.3162 56.4413 51.0001 57.2044 51.0001 58V63H49.0001C48.7349 63 48.4805 62.8946 48.293 62.7071C48.1055 62.5196 48.0001 62.2652 48.0001 62V53.25C48.0003 53.108 48.0307 52.9677 48.0893 52.8384C48.1479 52.7091 48.2334 52.5937 48.3401 52.5L54.3401 47.25C54.5226 47.0897 54.7572 47.0013 55.0001 47.0013C55.243 47.0013 55.4776 47.0897 55.6601 47.25L61.6601 52.5C61.7668 52.5937 61.8523 52.7091 61.9109 52.8384C61.9695 52.9677 61.9999 53.108 62.0001 53.25V62Z" fill="#BC3324"/>
<path d="M62.0001 62C62.0001 62.2652 61.8947 62.5196 61.7072 62.7071C61.5197 62.8946 61.2653 63 61.0001 63H59.0001V58C59.0001 57.2044 58.684 56.4413 58.1214 55.8787C57.5588 55.3161 56.7957 55 56.0001 55H54.0001C53.2044 55 52.4414 55.3161 51.8788 55.8787C51.3162 56.4413 51.0001 57.2044 51.0001 58V63H49.0001C48.7349 63 48.4805 62.8946 48.293 62.7071C48.1055 62.5196 48.0001 62.2652 48.0001 62V53.25C48.0003 53.108 48.0307 52.9677 48.0893 52.8384C48.1479 52.7091 48.2334 52.5937 48.3401 52.5L54.3401 47.25C54.5226 47.0897 54.7572 47.0013 55.0001 47.0013C55.243 47.0013 55.4776 47.0897 55.6601 47.25L61.6601 52.5C61.7668 52.5937 61.8523 52.7091 61.9109 52.8384C61.9695 52.9677 61.9999 53.108 62.0001 53.25V62Z" fill="#BC3324"/>
</svg>
